<?xml version="1.0" encoding="UTF-8" standalone="no"?>
<svg
   xmlns:dc="http://purl.org/dc/elements/1.1/"
   xmlns:cc="http://creativecommons.org/ns#"
   xmlns:rdf="http://www.w3.org/1999/02/22-rdf-syntax-ns#"
   xmlns:svg="http://www.w3.org/2000/svg"
   xmlns="http://www.w3.org/2000/svg"
   id="svg509"
   version="1.1"
   viewBox="0 0 210 297"
   height="297mm"
   width="210mm">
  <defs
     id="defs503">
    <linearGradient
       y2="59.699001"
       x2="259.9397"
       y1="59.699001"
       x1="231.2879"
       gradientUnits="userSpaceOnUse"
       id="SVGID_3_">
      <stop
         id="stop245"
         style="stop-color:#CB2D3E"
         offset="0" />
      <stop
         id="stop247"
         style="stop-color:#EF473A"
         offset="1" />
    </linearGradient>
    <linearGradient
       y2="57.6693"
       x2="259.91061"
       y1="57.6693"
       x1="255.6078"
       gradientUnits="userSpaceOnUse"
       id="SVGID_4_">
      <stop
         id="stop252"
         style="stop-color:#CB2D3E"
         offset="0" />
      <stop
         id="stop254"
         style="stop-color:#EF473A"
         offset="1" />
    </linearGradient>
    <linearGradient
       y2="76.593102"
       x2="243.1973"
       y1="76.593102"
       x1="239.0499"
       gradientUnits="userSpaceOnUse"
       id="SVGID_2_">
      <stop
         id="stop238"
         style="stop-color:#11998E"
         offset="0" />
      <stop
         id="stop240"
         style="stop-color:#38EF7D"
         offset="1" />
    </linearGradient>
    <linearGradient
       y2="71.4077"
       x2="267.33331"
       y1="71.4077"
       x1="238.9274"
       gradientUnits="userSpaceOnUse"
       id="SVGID_1_">
      <stop
         id="stop231"
         style="stop-color:#11998E"
         offset="0" />
      <stop
         id="stop233"
         style="stop-color:#38EF7D"
         offset="1" />
    </linearGradient>
  </defs>
  <metadata
     id="metadata506">
    <rdf:RDF>
      <cc:Work
         rdf:about="">
        <dc:format>image/svg+xml</dc:format>
        <dc:type
           rdf:resource="http://purl.org/dc/dcmitype/StillImage" />
        <dc:title></dc:title>
      </cc:Work>
    </rdf:RDF>
  </metadata>
  <g
     id="layer1">
    <path
       style="stroke-width:0.26458332"
       id="path236"
       d="m -77.644965,99.400588 c -0.240771,0.354542 -0.515937,0.468312 -0.841375,0.494771 -0.629708,0.05292 -1.211792,-0.124354 -1.780646,-0.370417 -1.243541,-0.537104 -2.299229,-1.367896 -3.391958,-2.143125 -0.121708,-0.08731 -0.243417,-0.177271 -0.370417,-0.259292 -0.08202,-0.05292 -0.171979,-0.148167 -0.275166,-0.04498 -0.08996,0.08996 -0.105834,0.211667 -0.05821,0.322792 0.0344,0.07937 0.0979,0.161395 0.169334,0.211666 1.013354,0.706438 1.981729,1.479021 3.082395,2.055813 0.695855,0.365123 1.418167,0.650873 2.293938,0.754063 -0.672042,0.1905 -1.230313,0.0503 -1.778,-0.14023 -0.762,-0.26194 -1.434042,-0.690562 -2.082271,-1.158875 -0.394229,-0.283104 -0.788458,-0.566208 -1.185333,-0.846667 -0.08996,-0.0635 -0.195792,-0.161395 -0.304271,-0.04233 -0.105833,0.116417 -0.09525,0.256646 -0.0053,0.383646 0.03175,0.04763 0.07408,0.08996 0.121708,0.121708 1.031874,0.738188 2.024061,1.550461 3.241144,1.979081 0.579438,0.20373 1.164167,0.33073 1.796521,0.25136 1.452563,-0.18257 2.293938,-1.711857 2.114021,-2.952753 -0.127,-0.870479 -0.489479,-1.632479 -1.029229,-2.31775 -0.06615,-0.08467 -0.121708,-0.243417 -0.256646,-0.179917 -0.148167,0.06879 -0.193146,0.235479 -0.148167,0.388938 0.0344,0.119062 0.10848,0.227541 0.177271,0.333375 0.343959,0.52652 0.629709,1.074208 0.732896,1.706562 0.09525,0.592667 -0.209021,0.994833 -0.804333,1.04775 -0.743479,0.06615 -1.410229,-0.1905 -2.06375,-0.492125 -0.867834,-0.399521 -1.61925,-0.981604 -2.399771,-1.516062 -0.113771,-0.07937 -0.227542,-0.156105 -0.346604,-0.230188 -0.07673,-0.04763 -0.15875,-0.124354 -0.248709,-0.03969 -0.08996,0.08467 -0.129645,0.201083 -0.07408,0.314854 0.03704,0.07937 0.100542,0.15875 0.174625,0.209021 0.994833,0.693208 1.957917,1.436687 3.095625,1.894416 0.764646,0.320146 1.539875,0.500063 2.44475,0.264584 z"
       class="st8" />
    <path
       style="stroke-width:0.26458332"
       id="path243"
       d="m -84.354798,99.34238 c 0,0.17727 0.07673,0.277812 0.179916,0.354541 0.166688,0.124354 0.336021,0.246063 0.505355,0.362479 0.105833,0.0741 0.216958,0.1561 0.325437,0.003 0.08467,-0.121708 0.134938,-0.256646 0.01323,-0.378354 -0.22225,-0.219558 -0.473604,-0.412704 -0.751416,-0.550288 -0.219605,-0.108479 -0.211667,0.124355 -0.272521,0.209022 z"
       class="st9" />
    <g
       id="g259"
       transform="matrix(0.26458333,0,0,0.26458333,-147.60344,79.363692)">
      <linearGradient
         y2="59.699001"
         x2="259.9397"
         y1="59.699001"
         x1="231.2879"
         gradientUnits="userSpaceOnUse"
         id="linearGradient492">
        <stop
           id="stop488"
           style="stop-color:#CB2D3E"
           offset="0" />
        <stop
           id="stop490"
           style="stop-color:#EF473A"
           offset="1" />
      </linearGradient>
      <path
         id="path250"
         d="m 259.42,65.46 c -1.49,-1.3 -3.13,-2.39 -4.84,-3.35 -3.69,-2.08 -7.58,-3.55 -11.92,-3.47 2.67,-1.28 5.33,-0.86 7.97,0.01 2.43,0.8 4.54,2.22 6.62,3.68 0.43,0.3 0.91,1.11 1.49,0.24 0.46,-0.7 0.21,-1.33 -0.45,-1.81 -3.16,-2.34 -6.51,-4.25 -10.51,-4.73 -0.3,-0.04 -0.59,-0.12 -1.23,-0.25 2.21,-0.56 4.05,-0.52 5.9,0.07 0.56,0.18 1.3,0.76 1.64,-0.24 0.11,-0.31 0.1,-0.56 0.03,-0.76 -0.07,-0.19 -0.25,-0.5 -1.15,-0.84 -0.92,-0.35 -1.3,-0.23 -1.69,-0.38 -0.34,-0.13 -0.59,-0.43 -0.78,-0.82 v -9.34 h 1.78 c 0.49,0 0.88,-0.41 0.85,-0.91 -0.03,-0.45 -0.43,-0.79 -0.88,-0.79 h -1.75 v -1.08 h 1.78 c 0.49,0 0.88,-0.41 0.85,-0.91 -0.03,-0.45 -0.43,-0.79 -0.88,-0.79 h -1.75 v -0.32 c 0,-0.76 -0.64,-1.38 -1.41,-1.34 -0.72,0.03 -1.28,0.66 -1.28,1.38 v 14.31 c -0.06,0.09 -0.1,0.17 -0.17,0.26 -0.09,0.12 -0.16,0.22 -0.22,0.29 -0.5,0.11 -1.21,0.29 -2.03,0.58 -6.12,2.1 -9.52,6.66 -10.4,7.91 -1.73,2.45 -2.93,5.33 -3.53,8.66 -0.94,5.17 1.78,10.71 8.09,11.32 1.9,0.18 3.74,-0.23 5.51,-0.91 0.27,-0.1 0.53,-0.32 0.7,-0.56 0.31,-0.42 0.34,-0.9 0.04,-1.35 -0.31,-0.46 -0.71,-0.17 -1.05,-0.04 -1.64,0.64 -3.32,1.13 -5.1,0.94 -6.36,-0.68 -7.77,-8.09 -5.12,-11.86 2.17,-3.08 5.2,-4.39 8.91,-4.3 3.55,0.08 6.58,1.58 9.44,3.52 0.58,0.39 1.14,0.81 1.72,1.2 0.35,0.23 0.72,0.63 1.15,0.18 0.4,-0.42 0.45,-0.95 0.15,-1.45 -0.13,-0.22 -0.33,-0.41 -0.53,-0.57 -3.6,-2.68 -7.5,-4.7 -12.08,-4.88 -2.06,-0.08 -4.08,0.37 -6.01,1.4 0.66,-1.08 2.28,-2.02 3.98,-2.41 3.28,-0.75 6.34,0.07 9.31,1.33 2.79,1.18 5.35,2.76 7.7,4.68 0.39,0.32 0.81,1.02 1.38,0.26 0.46,-0.62 0.36,-1.24 -0.23,-1.76 z"
         class="st10" />
      <linearGradient
         y2="57.6693"
         x2="259.91061"
         y1="57.6693"
         x1="255.6078"
         gradientUnits="userSpaceOnUse"
         id="linearGradient499">
        <stop
           id="stop495"
           style="stop-color:#CB2D3E"
           offset="0" />
        <stop
           id="stop497"
           style="stop-color:#EF473A"
           offset="1" />
      </linearGradient>
      <path
         id="path257"
         d="m 258.8,59.49 c 0.23,0.15 0.5,0.18 0.7,-0.08 0.31,-0.39 0.56,-0.87 0.29,-1.33 -0.71,-1.25 -2.15,-1.56 -3.02,-2.36 -0.62,-0.05 -0.82,0.26 -0.99,0.56 -0.24,0.41 -0.29,0.9 0.11,1.2 0.95,0.71 1.94,1.36 2.91,2.01 z"
         class="st11" />
    </g>
  </g>
</svg>
