<?xml version="1.0" encoding="UTF-8" standalone="no"?>
<!-- Generator: Adobe Illustrator 25.2.3, SVG Export Plug-In . SVG Version: 6.00 Build 0)  -->

<svg
   xmlns:dc="http://purl.org/dc/elements/1.1/"
   xmlns:cc="http://creativecommons.org/ns#"
   xmlns:rdf="http://www.w3.org/1999/02/22-rdf-syntax-ns#"
   xmlns:svg="http://www.w3.org/2000/svg"
   xmlns="http://www.w3.org/2000/svg"
   xmlns:sodipodi="http://sodipodi.sourceforge.net/DTD/sodipodi-0.dtd"
   xmlns:inkscape="http://www.inkscape.org/namespaces/inkscape"
   version="1.1"
   id="Layer_1"
   x="0px"
   y="0px"
   viewBox="0 0 300.67 114"
   style="enable-background:new 0 0 300.67 114;"
   xml:space="preserve"
   sodipodi:docname="logo.svg"
   inkscape:version="0.92.5 (2060ec1f9f, 2020-04-08)"><metadata
   id="metadata408"><rdf:RDF><cc:Work
       rdf:about=""><dc:format>image/svg+xml</dc:format><dc:type
         rdf:resource="http://purl.org/dc/dcmitype/StillImage" /></cc:Work></rdf:RDF></metadata><defs
   id="defs406" /><sodipodi:namedview
   pagecolor="#ffffff"
   bordercolor="#666666"
   borderopacity="1"
   objecttolerance="10"
   gridtolerance="10"
   guidetolerance="10"
   inkscape:pageopacity="0"
   inkscape:pageshadow="2"
   inkscape:window-width="1366"
   inkscape:window-height="697"
   id="namedview404"
   showgrid="false"
   inkscape:zoom="5.5125494"
   inkscape:cx="172.66108"
   inkscape:cy="57"
   inkscape:window-x="0"
   inkscape:window-y="0"
   inkscape:window-maximized="1"
   inkscape:current-layer="g261" />
<style
   type="text/css"
   id="style229">
	.st0{fill:none;stroke:#FFFFFF;stroke-width:2;stroke-miterlimit:10;}
	.st1{fill:#E6451B;}
	.st2{fill:#42A62A;}
	.st3{fill:#FFFFFF;}
	.st4{fill:#F6921E;}
	.st5{fill:#231F20;}
	.st6{fill:#6D6E70;}
	.st7{fill:#130C0D;}
	.st8{fill:url(#SVGID_1_);}
	.st9{fill:url(#SVGID_2_);}
	.st10{fill:url(#SVGID_3_);}
	.st11{fill:url(#SVGID_4_);}
	.st12{fill:url(#SVGID_5_);}
	.st13{fill:url(#SVGID_6_);}
	.st14{fill:url(#SVGID_7_);}
	.st15{fill:url(#SVGID_8_);}
	.st16{fill:url(#SVGID_9_);}
	.st17{fill:url(#SVGID_10_);}
	.st18{fill:url(#SVGID_11_);}
	.st19{fill:url(#SVGID_12_);}
	.st20{fill:#212121;}
	.st21{fill-rule:evenodd;clip-rule:evenodd;fill:#212121;}
	.st22{fill:#212121;stroke:#2B2A29;stroke-width:0.216;stroke-miterlimit:22.9256;}
	.st23{fill:url(#SVGID_13_);}
	.st24{fill:url(#SVGID_14_);}
	.st25{fill:url(#SVGID_15_);}
	.st26{fill:url(#SVGID_16_);}
	.st27{fill:#19A66D;}
	.st28{fill:#8D3248;}
	.st29{fill:url(#SVGID_17_);}
	.st30{fill:url(#SVGID_18_);}
	.st31{fill:#303030;}
	.st32{fill:url(#SVGID_19_);}
	.st33{fill:url(#SVGID_20_);}
	.st34{fill:url(#SVGID_21_);}
	.st35{fill:url(#SVGID_22_);}
	.st36{fill-rule:evenodd;clip-rule:evenodd;fill:#FFFFFF;}
	.st37{fill:url(#SVGID_23_);}
	.st38{fill:url(#SVGID_24_);}
	.st39{fill:url(#SVGID_25_);}
	.st40{fill:url(#SVGID_26_);}
	.st41{fill:url(#SVGID_27_);}
	.st42{fill:url(#SVGID_28_);}
	.st43{fill:url(#SVGID_29_);}
	.st44{fill:url(#SVGID_30_);}
</style>
<g
   id="g401">
	<g
   id="g261">
		<linearGradient
   id="SVGID_1_"
   gradientUnits="userSpaceOnUse"
   x1="238.9274"
   y1="71.4077"
   x2="267.3333"
   y2="71.4077">
			<stop
   offset="0"
   style="stop-color:#11998E"
   id="stop231" />
			<stop
   offset="1"
   style="stop-color:#38EF7D"
   id="stop233" />
		</linearGradient>
		<path
   class="st8"
   d="M264.41,75.73c-0.91,1.34-1.95,1.77-3.18,1.87c-2.38,0.2-4.58-0.47-6.73-1.4c-4.7-2.03-8.69-5.17-12.82-8.1    c-0.46-0.33-0.92-0.67-1.4-0.98c-0.31-0.2-0.65-0.56-1.04-0.17c-0.34,0.34-0.4,0.8-0.22,1.22c0.13,0.3,0.37,0.61,0.64,0.8    c3.83,2.67,7.49,5.59,11.65,7.77c2.63,1.38,5.36,2.46,8.67,2.85c-2.54,0.72-4.65,0.19-6.72-0.53c-2.88-0.99-5.42-2.61-7.87-4.38    c-1.49-1.07-2.98-2.14-4.48-3.2c-0.34-0.24-0.74-0.61-1.15-0.16c-0.4,0.44-0.36,0.97-0.02,1.45c0.12,0.18,0.28,0.34,0.46,0.46    c3.9,2.79,7.65,5.86,12.25,7.48c2.19,0.77,4.4,1.25,6.79,0.95c5.49-0.69,8.67-6.47,7.99-11.16c-0.48-3.29-1.85-6.17-3.89-8.76    c-0.25-0.32-0.46-0.92-0.97-0.68c-0.56,0.26-0.73,0.89-0.56,1.47c0.13,0.45,0.41,0.86,0.67,1.26c1.3,1.99,2.38,4.06,2.77,6.45    c0.36,2.24-0.79,3.76-3.04,3.96c-2.81,0.25-5.33-0.72-7.8-1.86c-3.28-1.51-6.12-3.71-9.07-5.73c-0.43-0.3-0.86-0.59-1.31-0.87    c-0.29-0.18-0.6-0.47-0.94-0.15c-0.34,0.32-0.49,0.76-0.28,1.19c0.14,0.3,0.38,0.6,0.66,0.79c3.76,2.62,7.4,5.43,11.7,7.16    C258.06,75.94,260.99,76.62,264.41,75.73z"
   id="path236"
   style="fill:#ffffff" />
		<linearGradient
   id="SVGID_2_"
   gradientUnits="userSpaceOnUse"
   x1="239.0499"
   y1="76.5931"
   x2="243.1973"
   y2="76.5931">
			<stop
   offset="0"
   style="stop-color:#11998E"
   id="stop238" />
			<stop
   offset="1"
   style="stop-color:#38EF7D"
   id="stop240" />
		</linearGradient>
		<path
   class="st9"
   d="M239.05,75.51c0,0.67,0.29,1.05,0.68,1.34c0.63,0.47,1.27,0.93,1.91,1.37c0.4,0.28,0.82,0.59,1.23,0.01    c0.32-0.46,0.51-0.97,0.05-1.43c-0.84-0.83-1.79-1.56-2.84-2.08C239.25,74.31,239.28,75.19,239.05,75.51z"
   id="path243"
   style="fill:#ffffff" />
		<g
   id="g259"
   style="fill:#ffffff">
			<linearGradient
   id="SVGID_3_"
   gradientUnits="userSpaceOnUse"
   x1="231.2879"
   y1="59.699"
   x2="259.9397"
   y2="59.699">
				<stop
   offset="0"
   style="stop-color:#CB2D3E"
   id="stop245" />
				<stop
   offset="1"
   style="stop-color:#EF473A"
   id="stop247" />
			</linearGradient>
			<path
   class="st10"
   d="M259.42,65.46c-1.49-1.3-3.13-2.39-4.84-3.35c-3.69-2.08-7.58-3.55-11.92-3.47     c2.67-1.28,5.33-0.86,7.97,0.01c2.43,0.8,4.54,2.22,6.62,3.68c0.43,0.3,0.91,1.11,1.49,0.24c0.46-0.7,0.21-1.33-0.45-1.81     c-3.16-2.34-6.51-4.25-10.51-4.73c-0.3-0.04-0.59-0.12-1.23-0.25c2.21-0.56,4.05-0.52,5.9,0.07c0.56,0.18,1.3,0.76,1.64-0.24     c0.11-0.31,0.1-0.56,0.03-0.76c-0.07-0.19-0.25-0.5-1.15-0.84c-0.92-0.35-1.3-0.23-1.69-0.38c-0.34-0.13-0.59-0.43-0.78-0.82     v-9.34h1.78c0.49,0,0.88-0.41,0.85-0.91c-0.03-0.45-0.43-0.79-0.88-0.79h-1.75v-1.08h1.78c0.49,0,0.88-0.41,0.85-0.91     c-0.03-0.45-0.43-0.79-0.88-0.79h-1.75v-0.32c0-0.76-0.64-1.38-1.41-1.34c-0.72,0.03-1.28,0.66-1.28,1.38v14.31     c-0.06,0.09-0.1,0.17-0.17,0.26c-0.09,0.12-0.16,0.22-0.22,0.29c-0.5,0.11-1.21,0.29-2.03,0.58c-6.12,2.1-9.52,6.66-10.4,7.91     c-1.73,2.45-2.93,5.33-3.53,8.66c-0.94,5.17,1.78,10.71,8.09,11.32c1.9,0.18,3.74-0.23,5.51-0.91c0.27-0.1,0.53-0.32,0.7-0.56     c0.31-0.42,0.34-0.9,0.04-1.35c-0.31-0.46-0.71-0.17-1.05-0.04c-1.64,0.64-3.32,1.13-5.1,0.94c-6.36-0.68-7.77-8.09-5.12-11.86     c2.17-3.08,5.2-4.39,8.91-4.3c3.55,0.08,6.58,1.58,9.44,3.52c0.58,0.39,1.14,0.81,1.72,1.2c0.35,0.23,0.72,0.63,1.15,0.18     c0.4-0.42,0.45-0.95,0.15-1.45c-0.13-0.22-0.33-0.41-0.53-0.57c-3.6-2.68-7.5-4.7-12.08-4.88c-2.06-0.08-4.08,0.37-6.01,1.4     c0.66-1.08,2.28-2.02,3.98-2.41c3.28-0.75,6.34,0.07,9.31,1.33c2.79,1.18,5.35,2.76,7.7,4.68c0.39,0.32,0.81,1.02,1.38,0.26     C260.11,66.6,260.01,65.98,259.42,65.46z"
   id="path250"
   style="fill:#ffffff" />
			<linearGradient
   id="SVGID_4_"
   gradientUnits="userSpaceOnUse"
   x1="255.6078"
   y1="57.6693"
   x2="259.9106"
   y2="57.6693">
				<stop
   offset="0"
   style="stop-color:#CB2D3E"
   id="stop252" />
				<stop
   offset="1"
   style="stop-color:#EF473A"
   id="stop254" />
			</linearGradient>
			<path
   class="st11"
   d="M258.8,59.49c0.23,0.15,0.5,0.18,0.7-0.08c0.31-0.39,0.56-0.87,0.29-1.33c-0.71-1.25-2.15-1.56-3.02-2.36     c-0.62-0.05-0.82,0.26-0.99,0.56c-0.24,0.41-0.29,0.9,0.11,1.2C256.84,58.19,257.83,58.84,258.8,59.49z"
   id="path257"
   style="fill:#ffffff" />
		</g>
	</g>
	<g
   id="g399">
		<path
   class="st20"
   d="M215.78,53.71c-2.65-1.06-7.36-2.13-10.17-2.13c-1.19,0-1.78,0.1-1.78,0.28c0,0.28,2.23,2,2.56,2.27    c0.99,0.84,1.63,1.44,1.91,1.81C210.74,55.07,213.24,54.3,215.78,53.71 M177.42,66.74c-1.54-0.46-2.23-1.94-2.98-3.23    c-0.3-0.47-0.6-0.69-0.9-0.69c-0.93,0-1.91,0.78-2.94,2.35c-0.87,1.43-1.24,3.29-2.21,4.78c-1.49,2.21-3.13,1.14-4.05-0.92    c-0.56-1.26-0.84-2.57-0.84-3.93c0-1.64,0.16-2.95,0.49-3.93c0.24-0.79,0.43-0.64,0.35,0.12c-0.13,1.05-0.19,1.93-0.19,2.66    c0,3.47,0.8,5.21,2.41,5.21c1.57,0,2.85-3.85,3.46-5.15c0.62-1.25,2.25-3.63,3.8-3.63c0.45,0,0.86,0.28,1.25,0.84    c1.12,1.86,1.65,3.17,4.15,3.18c2.7,0,3.33-0.91,4.91-2.65c0.37-0.4,0.68-0.72,0.74-0.67c0.23,0,0.18,0.37,0.11,0.54    c-0.4,1.42,0.05,2.39,1.7,2.41c1.17,0.01,2.56-0.45,3.98-1.34c-0.59-0.62-2.1-1.72-2.97-1.72c-0.6,0-1.04,0.09-1.34,0.27    c-0.4,0.22-0.5-0.02-0.33-0.35l0.75-1.74c0.13-0.31,0.86-0.61,2.19-0.91c2.83-0.64,6.55-0.77,8.97,1.04    c0.45,0.35,0.62,0.41,0.34,0.91l-0.74,1.43c-0.77,0.28-1.84,0.71-3.22,1.3c0.77,0.74,1.9,1.12,3.36,1.12    c1.07,0,2.4-0.44,3.99-1.33c-0.04-0.3-0.07-0.6-0.07-0.9c0-2.09,1.04-3.56,3.08-4.38c0.47-0.21,1.11-0.48,1.88-0.83    c-0.1-0.11-0.68-0.6-1.74-1.47c-1.21-0.97-2.13-1.62-2.13-3.25c0.13-1.61,1.73-2.57,3.24-2.57c3.99,0,9.92,1.87,13.91,2.96    c0.23,0.06,0.25,0.22,0.18,0.42l-0.58,1.67c-0.09,0.24-0.12,0.42-0.38,0.48c-3.36,0.82-6.71,1.87-10.03,3.17    c0.05,0.51,0.08,0.9,0.08,1.19c0,0.41-0.06,0.62-0.18,0.62c-0.18,0-0.53-0.47-1.07-1.42c-0.61,0.19-1.68,0.61-3.19,1.27v0    c-0.58,0.24-1.14,0.53-1.6,0.82c-0.47,0.3-0.69,0.49-0.69,0.57c0,0.25,0.13,0.66,0.4,1.22c1.12-0.38,2.04-0.56,2.74-0.56    c0.69,0,1.25,0.3,1.67,0.89c0.77,1.12,0.87,3.2,0.1,4.34c-1.58,2.37-4.13-0.74-4.9-2.2c-1.33,0.81-3.18,1.79-4.78,1.77    c-2.56-0.02-3.59-0.84-5.46-2.49c-1.28,0.87-2.7,1.95-4.26,2.34c-2.01,0.5-3.71-0.34-3.98-2.48    C182.75,66.14,179.84,67.37,177.42,66.74z M194.8,60.57c-0.79-0.57-2.87-0.59-3.86-0.39c0.79,0.53,1.38,1.01,1.76,1.43    C193.38,61.22,194.08,60.88,194.8,60.57z M206.65,64.97c0-0.26-0.21-0.49-0.62-0.68c-0.48-0.18-1.13-0.2-1.94-0.07    c0.6,0.71,1.26,1.07,2.01,1.07C206.32,65.3,206.65,65.26,206.65,64.97z"
   id="path263"
   style="fill:#ffffff" />
		<path
   class="st20"
   d="M161.51,58.47c-0.18,0.13-0.27,0.27-0.27,0.42c0.52,0.4,2.06,1.22,2.7,1.22c0.11,0,0.18-0.07,0.18-0.2    C164.12,58.74,162.59,57.66,161.51,58.47 M152.62,60.4c0-0.49-0.61-2.37-1.09-2.37c-0.67,0-1.98,1.75-2.24,2.36    c0.07,0.25,0.26,0.53,0.56,0.83c0.31,0.29,0.61,0.5,0.94,0.62C151.44,61.52,152.25,61.03,152.62,60.4z M165.25,61.7    c-0.39,0.93-0.61,0.99-1.51,0.88c-1.3-0.15-2.6-0.72-3.9-1.73c-0.78,2.15-2.52,4.31-4.93,4.29c-2.04-0.01-3.54-0.3-4.5-0.87    c-1.07,0.79-2.03,1.22-2.88,1.29c-2.36,0.19-3.36-1.24-3.76-3.45c-0.15-0.88-0.3-3.47-0.43-7.76c-0.13-4.43-0.03-9.13-1.35-13.4    c0-0.4,0.16-1.01,0.49-1.82c0.15-0.34,0.21-0.42,0.4-0.05c2.19,4.6,1.48,16.18,1.91,21.44c0.14,1.74,0.8,2.55,2.56,2.55    c0.59-0.01,1.16-0.14,1.69-0.39c-0.25-0.47-0.39-1.12-0.39-1.94c0-1.15,0.43-2.31,1.3-3.48c0.95-1.28,2.45-2.65,3.29-0.44    c0.62,1.7,0.4,4.23-0.75,5.65c0.47,0.12,1.3,0.18,2.5,0.18c1.48,0,3.38-0.66,4.1-2.04c0.25-0.47,0.96-2.33,1.34-2.41    c0.26-0.51,0.63-1,1.1-1.47c1.28-1.3,2.86-1.49,3.65,0.42C165.75,58.48,165.8,60.37,165.25,61.7z"
   id="path265"
   style="fill:#ffffff" />
		<path
   class="st20"
   d="M141.2,72.94c0-1.63-1.38-2.87-2.86-3.28c-2.38-0.7-5.39-0.16-7.82-0.72c-1.3-0.3-2.57-0.8-3.83-1.49    c-1.16,1.58-1.97,4.15-1.97,6.09c0,4.03,2.27,6.05,6.8,6.05C134.61,79.58,141.2,76.35,141.2,72.94 M141.85,71.72    c0,5.45-5.35,10.36-10.71,10.36c-4.82,0-7.24-2.67-7.24-8.01c0-2.45,0.62-4.82,1.87-7.11c-0.4-0.25-0.6-0.41-0.6-0.53    c0-0.24,0.83-0.06,0.96-0.04c1.53-2.39,3.67-4.29,6.43-5.68c-2.63,0-5.82-0.23-8.55-0.18c-0.29,0-0.43-0.08-0.43-0.18    c0-0.06,0.02-0.16,0.07-0.29c0.05-0.17,0.69-1.97,0.69-1.97c0.04-0.1,2.19-1.35,2.35-1.44c1.62-0.92,2.85-1.85,3.68-2.77    c0.67-0.74,1.38-1.79,2.14-3.16c0.54-0.96,0.97-1.43,1.28-1.43c0.39,0,0.63,0.32,0.73,0.96c0.17,0.99,0.37,1.71,0.6,2.14    c0.62,1.13,1.9,1.82,3.18,1.83c0.94,0,1.65-0.33,1.93-0.98c0-0.32-0.35-1.04-1.04-2.14c-0.05-0.1-0.09-0.19-0.09-0.3    c0-0.62,0.15-1.25,0.45-1.87c0.1-0.19,0.2-0.19,0.32,0c0.4,0.61,0.68,1.11,0.82,1.49c0.48,1.28,0.44,3.69-0.23,4.87    c-0.46,0.81-1.2,1.41-2.16,1.41c-2.8,0-4-1.34-4.55-3.86c-0.15-0.71-0.28-1.06-0.39-1.06c-0.22,0-0.49,0.36-0.8,1.07    c-0.47,1.12-0.88,1.93-1.21,2.48c-0.7,1.07-1.6,2.04-2.65,2.77c3.5,0,7.2,0.34,10.64,0.11c0.48-0.04,0.72,0.02,0.72,0.15    c0,0.07-0.03,0.18-0.09,0.33l-0.61,1.63c-0.07,0.17-0.2,0.28-0.4,0.33c-4.17,1.14-8.69,2.47-11.58,5.91    c1.48,0.18,3.93,0.33,7.31,0.46c2.24,0.1,5.06-0.07,6.42,2.05C141.63,69.88,141.85,70.77,141.85,71.72z"
   id="path267"
   style="fill:#ffffff" />
		<path
   class="st20"
   d="M119.19,43.59c0-0.8-0.12-1.45-0.37-1.97c0-0.29,0.23-0.97,0.69-2.06c0.05-0.13,0.11-0.19,0.15-0.2    c0.04,0.01,0.11,0.08,0.18,0.22c0.13,0.28,0.44,1.05,0.91,2.34c0.51,1.33,0.81,2.14,0.89,2.45c0.07,0.23,0.1,0.4,0.1,0.52    c0,0.37-0.35,0.15-1.05-0.66c-0.08-0.11-0.12-0.06-0.12,0.15c0,0.08,0.18,2.63,0.54,7.65c0.37,5.02,0.54,7.85,0.54,8.48    c0,1.93-0.29,3.63-0.88,5.09c-0.12,0.3-0.23,0.52-0.3,0.65c-0.11,0.2-0.18,0.23-0.21,0.09c-0.04-0.15-0.03-0.47,0.04-0.95    c0.08-0.66,0.11-1.43,0.11-2.31c0-0.8-0.2-4.07-0.61-9.83C119.39,47.5,119.19,44.27,119.19,43.59z"
   id="path269"
   style="fill:#ffffff" />
		<path
   class="st20"
   d="M113.67,58.98c0,2.4-0.44,4.29-1.3,5.66c-1.19,1.9-3.13,2.25-5.03,1.16c-0.97-0.61-1.69-1.67-2.95-1.68    c-3.39,0.08-6.68,4.11-8.7,6.62c-1.02,1.27-2.62,3.46-4.42,3.46c-1.99,0-3.12-2.14-3.12-3.93c0-1.54,0.62-3.53,1.89-6    c0.13-0.25,0.24-0.39,0.31-0.39c0.04,0.01,0.05,0.04,0.05,0.11c0,1.32-1.64,3.92-1.64,6.07c0,1.15,0.54,2.2,1.82,2.2    c2.07,0,5.22-4.3,6.56-5.88c2.34-2.65,4.44-4.19,6.31-4.63c1.35-0.31,2.38,0,3.51,1.01c1.56,1.4,3.52,1.54,5.15,0.22    c0.21-0.18,0.32-0.85,0.32-1.99c0-0.69-0.18-3.5-0.54-8.4c-0.36-4.9-0.54-7.79-0.54-8.67c0-0.8-0.12-1.45-0.38-1.97    c0-0.28,0.24-0.97,0.7-2.06c0.04-0.13,0.1-0.19,0.15-0.19c0.04,0,0.11,0.07,0.17,0.22c0.14,0.28,0.44,1.06,0.92,2.34    c0.5,1.33,0.8,2.14,0.9,2.44c0.05,0.25,0.08,0.42,0.08,0.52c0,0.37-0.35,0.16-1.05-0.64c-0.09-0.11-0.12-0.07-0.12,0.15    c0,0.05,0.16,2.23,0.47,6.54C113.38,53.74,113.67,56.51,113.67,58.98"
   id="path271"
   style="fill:#ffffff" />
		<path
   class="st20"
   d="M94.09,43.1c0-0.8-0.12-1.45-0.37-1.97c0-0.29,0.23-0.97,0.69-2.06c0.05-0.13,0.11-0.19,0.15-0.2    c0.04,0.01,0.11,0.08,0.18,0.22c0.13,0.28,0.44,1.05,0.91,2.34c0.51,1.33,0.81,2.14,0.89,2.45c0.07,0.23,0.1,0.4,0.1,0.52    c0,0.37-0.35,0.15-1.05-0.66c-0.08-0.11-0.12-0.06-0.12,0.15c0,0.08,0.18,2.63,0.54,7.65c0.37,5.02,0.54,7.85,0.54,8.48    c0,1.93-0.29,3.63-0.88,5.09c-0.12,0.3-0.23,0.52-0.3,0.65c-0.11,0.2-0.18,0.23-0.21,0.09c-0.04-0.15-0.03-0.47,0.04-0.95    c0.08-0.66,0.11-1.43,0.11-2.31c0-0.8-0.2-4.07-0.61-9.83C94.29,47.01,94.09,43.79,94.09,43.1z"
   id="path273"
   style="fill:#ffffff" />
		<path
   class="st20"
   d="M86.47,57.53c0.45-0.16,0.69-0.4,0.75-0.69c0.05-0.18,0.08-1.17,0.08-2.96c0-0.88-0.11-2.7-0.32-5.48    c-0.21-2.78-0.31-4.5-0.31-5.19c0-0.8-0.12-1.45-0.37-1.97c0-0.28,0.23-0.97,0.69-2.06c0.04-0.13,0.1-0.19,0.15-0.19    c0.04,0,0.11,0.07,0.18,0.22c0.13,0.28,0.44,1.06,0.91,2.34c0.5,1.33,0.8,2.14,0.9,2.44c0.05,0.25,0.08,0.42,0.08,0.52    c0,0.37-0.35,0.15-1.04-0.64c-0.09-0.11-0.12-0.07-0.12,0.15c0,0.04,0.08,1.16,0.25,3.35c0.17,2.18,0.25,3.68,0.25,4.51    c0,2.35-0.15,4.06-0.47,5.12c-0.27,0.96-0.73,1.78-1.36,2.47c3.44,0.51,7.06,1.03,10.53,1.03c0.38,0,0.83-0.07,0.63,0.36    l-0.89,1.72c-0.09,0.18-0.2,0.27-0.33,0.27c-2.78,0-5.18,0.42-7.2,1.26c-0.48,0.2-1.77,0.84-3.88,1.92    c-5.77,3.01-5.69-1.17-8.36-1.18c-3.39,0.07-6.69,4.11-8.71,6.62c-1.02,1.27-2.62,3.46-4.42,3.46c-1.99,0-3.12-2.14-3.12-3.93    c0-1.67,1.06-4.61,1.97-6.14c0.22-0.36,0.37-0.25,0.31,0.11c-0.14,0.91-1.67,3.94-1.67,5.82c0,0.65,0.15,1.18,0.46,1.56    c1.32,1.71,3.65-0.38,4.63-1.41c2.39-2.77,5.69-7.24,9.14-8.35c3.55-1.14,3.7,2,6.81,2.01c1.23-0.01,3.29-0.8,6.18-2.41    c-2.6-0.42-5.4-0.79-8.02-0.95c-0.27-0.02-0.44-0.1-0.36-0.27c0.04-0.08,0.08-0.17,0.13-0.26c0.19-0.39,0.44-0.87,0.74-1.46    C81.27,59.22,86.01,57.72,86.47,57.53"
   id="path275"
   style="fill:#ffffff" />
		<path
   class="st20"
   d="M62.79,65.22c-1.51-0.54-2.23-1.94-2.98-3.23c-1.21-1.88-3.12,0.56-3.84,1.66    c-0.87,1.43-1.24,3.29-2.21,4.78c-0.54,0.81-1.12,1.22-1.74,1.22c-2.26,0-3.15-3.95-3.15-6.07c0-1.05,0.23-4.45,0.76-4.45    c0.11,0,0.12,0.21,0.08,0.64c-0.27,2.1-0.69,7.87,2.21,7.87c1.57,0,2.85-3.85,3.46-5.15c0.62-1.25,2.25-3.63,3.8-3.63    c1.9,0,1.38,3.99,5.46,4.02c1.67-0.02,3.28-2.02,4.27-2.9c0.76-0.68,1.43-0.53,1.43,0.6c0,0.88-0.32,1.86-0.97,2.98    c-0.48,0.81-0.56,0.36-0.3-0.33c0.13-0.35,0.22-0.65,0.27-0.9c0.09-0.51,0.04-0.58-0.41-0.24c-0.72,0.54-1.58,1.91-2.18,2.41    C65.71,65.44,64.27,65.75,62.79,65.22"
   id="path277"
   style="fill:#ffffff" />
		<path
   class="st20"
   d="M136.86,44.53l0.63-1.31c0.05-0.11,0.11-0.15,0.16-0.15c0.09,0,0.45,0.21,1.07,0.64    c0.63,0.43,0.95,0.68,0.95,0.76c0,0.28-0.28,0.87-0.83,1.77c-0.07,0.11-0.14,0.14-0.21,0.09c-0.54-0.4-1.17-0.83-1.85-1.28    c-0.23,0.53-0.46,0.97-0.68,1.33c-0.06,0.11-0.13,0.14-0.21,0.09c-0.62-0.47-1.26-0.92-1.92-1.33c-0.04-0.03-0.04-0.07,0-0.15    l0.79-1.62c0.05-0.11,0.11-0.15,0.17-0.15c0.07,0,0.38,0.18,0.9,0.53C136.34,44.1,136.69,44.36,136.86,44.53z"
   id="path279"
   style="fill:#ffffff" />
		<path
   class="st20"
   d="M131.56,75.86l0.63-1.31c0.05-0.11,0.11-0.15,0.16-0.15c0.09,0,0.45,0.21,1.07,0.64    c0.63,0.43,0.95,0.68,0.95,0.76c0,0.28-0.28,0.87-0.83,1.77c-0.07,0.11-0.14,0.14-0.21,0.09c-0.54-0.4-1.17-0.83-1.85-1.28    c-0.23,0.53-0.46,0.97-0.68,1.33c-0.06,0.11-0.13,0.14-0.21,0.09c-0.62-0.47-1.26-0.92-1.92-1.33c-0.04-0.03-0.04-0.07,0-0.15    l0.79-1.62c0.05-0.11,0.11-0.15,0.17-0.15c0.07,0,0.38,0.18,0.9,0.53C131.05,75.43,131.4,75.69,131.56,75.86z"
   id="path281"
   style="fill:#ffffff" />
		<path
   class="st20"
   d="M104,70.73c-0.04-0.03-0.04-0.07,0-0.15l0.79-1.62c0.05-0.11,0.11-0.15,0.17-0.15    c0.08,0,0.44,0.21,1.06,0.64c0.63,0.43,0.95,0.68,0.95,0.76c0,0.28-0.28,0.87-0.83,1.77c-0.06,0.11-0.14,0.14-0.21,0.09    C105.3,71.59,104.66,71.14,104,70.73z"
   id="path283"
   style="fill:#ffffff" />
		<path
   class="st20"
   d="M77.24,56.41c-0.04-0.03-0.04-0.07,0-0.15l0.79-1.62c0.05-0.11,0.11-0.15,0.17-0.15    c0.08,0,0.44,0.21,1.06,0.64c0.63,0.43,0.95,0.69,0.98,0.77c0.07,0.09-0.42,0.82-0.87,1.76c-0.09,0.18-0.17,0.12-0.24,0.07    C78.51,57.25,77.9,56.83,77.24,56.41z"
   id="path285"
   style="fill:#ffffff" />
		<path
   class="st20"
   d="M52.65,54.97l0.63-1.31c0.05-0.11,0.11-0.15,0.16-0.15c0.09,0,0.45,0.21,1.07,0.64    c0.63,0.43,0.95,0.68,0.95,0.76c0,0.28-0.28,0.87-0.83,1.77c-0.07,0.11-0.14,0.14-0.21,0.09c-0.54-0.4-1.17-0.83-1.85-1.28    c-0.23,0.53-0.46,0.97-0.68,1.33c-0.06,0.11-0.13,0.14-0.21,0.09c-0.62-0.47-1.26-0.92-1.92-1.33c-0.04-0.03-0.04-0.07,0-0.15    l0.79-1.62c0.05-0.11,0.11-0.15,0.17-0.15c0.07,0,0.38,0.18,0.9,0.53C52.13,54.54,52.48,54.8,52.65,54.97z"
   id="path287"
   style="fill:#ffffff" />
		<path
   class="st20"
   d="M212.81,63.1c-0.04-0.03-0.04-0.07,0-0.15l0.79-1.62c0.05-0.11,0.11-0.15,0.17-0.15    c0.08,0,0.44,0.21,1.06,0.64c0.63,0.43,0.95,0.68,0.95,0.76c0,0.28-0.28,0.87-0.83,1.77c-0.06,0.11-0.14,0.14-0.21,0.09    C214.11,63.96,213.47,63.51,212.81,63.1z"
   id="path289"
   style="fill:#ffffff" />
		<path
   class="st20"
   d="M171.25,54.13l0.63-1.31c0.05-0.11,0.11-0.15,0.16-0.15c0.09,0,0.45,0.21,1.07,0.64    c0.63,0.43,0.95,0.68,0.95,0.76c0,0.28-0.28,0.87-0.83,1.77c-0.07,0.11-0.14,0.14-0.21,0.09c-0.54-0.4-1.17-0.83-1.85-1.28    c-0.23,0.53-0.46,0.97-0.68,1.33c-0.06,0.11-0.13,0.14-0.21,0.09c-0.62-0.47-1.26-0.92-1.92-1.33c-0.04-0.03-0.04-0.07,0-0.15    l0.79-1.62c0.05-0.11,0.11-0.15,0.17-0.15c0.07,0,0.38,0.18,0.9,0.53C170.73,53.7,171.08,53.96,171.25,54.13z"
   id="path291"
   style="fill:#ffffff" />
		<path
   class="st20"
   d="M149.91,52.38c-0.04-0.03-0.04-0.07,0-0.15l0.79-1.62c0.05-0.11,0.11-0.15,0.17-0.15    c0.08,0,0.44,0.21,1.06,0.64c0.63,0.43,0.95,0.68,0.95,0.76c0,0.28-0.28,0.87-0.83,1.77c-0.06,0.11-0.14,0.14-0.21,0.09    C151.21,53.24,150.57,52.8,149.91,52.38z"
   id="path293"
   style="fill:#ffffff" />
		<path
   class="st20"
   d="M176.09,72.39l0.63-1.31c0.05-0.11,0.11-0.15,0.16-0.15c0.09,0,0.45,0.21,1.07,0.64    c0.63,0.43,0.95,0.68,0.95,0.76c0,0.28-0.28,0.87-0.83,1.77c-0.07,0.11-0.14,0.14-0.21,0.09c-0.54-0.4-1.17-0.83-1.85-1.28    c-0.23,0.53-0.46,0.97-0.68,1.33c-0.06,0.11-0.13,0.14-0.21,0.09c-0.62-0.47-1.26-0.92-1.92-1.33c-0.04-0.03-0.04-0.07,0-0.15    l0.79-1.62c0.05-0.11,0.11-0.15,0.17-0.15c0.07,0,0.38,0.18,0.9,0.53C175.58,71.96,175.93,72.23,176.09,72.39z"
   id="path295"
   style="fill:#ffffff" />
		<path
   class="st21"
   d="M76.29,50.75c-0.08,0.22-0.07,0.5,0.11,0.68c0.32,0.15,0.7,0.09,1.01-0.08    C77.11,51.03,76.69,50.9,76.29,50.75 M76.34,49.55c0.15-0.35,0.22-0.74,0.45-1.04c0.13,0.44-0.09,0.88-0.24,1.28    c0.36,0.17,0.78,0.27,1.05,0.57c0.39,0.36,0.33,0.97,0.15,1.43c-0.33,0.51-1.05,0.77-1.61,0.51c-0.22-0.21-0.34-0.54-0.3-0.85    C75.95,50.81,76.09,50.16,76.34,49.55"
   id="path297"
   style="fill:#ffffff" />
		<path
   class="st21"
   d="M200.78,69.35c0,0.12,0.03,0.31,0.18,0.13c0.07-0.08,0.12-0.56,0.47-0.56c0.15,0,0.45,0.12,0.48,0.24    c-0.34,0.08-0.88,0.33-1.1,0.54c-0.18,0.18-0.28,0.42-0.33,0.7c-0.05,0.3-0.09,0.48,0.04,0.74c0.93,1.8,1.47,1.97,1.6,4.31    c0.05,0.74,0.13,0.93,0.18-0.03c0.12-1.98-0.26-2.93-1.48-4.74c0.31-0.46,1.32-0.59,1.83-0.65c0.34-0.05,0.31-0.15,0.35-0.46    c0.11-0.8,0.22-0.53-0.26-1.08c-0.27-0.3-0.73-0.61-1.14-0.61C201.06,67.9,200.78,69.12,200.78,69.35z"
   id="path299"
   style="fill:#ffffff" />
		
		<path
   class="st21"
   d="M159.39,68.15c0,0.12,0.03,0.31,0.18,0.13c0.07-0.08,0.12-0.56,0.47-0.56c0.15,0,0.45,0.12,0.48,0.24    c-0.34,0.08-0.88,0.33-1.1,0.54c-0.18,0.18-0.28,0.42-0.33,0.7c-0.05,0.3-0.09,0.48,0.04,0.74c0.93,1.8,1.47,1.97,1.6,4.31    c0.05,0.74,0.13,0.93,0.18-0.03c0.12-1.98-0.26-2.93-1.48-4.74c0.31-0.46,1.32-0.59,1.83-0.65c0.34-0.05,0.31-0.15,0.35-0.46    c0.11-0.8,0.22-0.53-0.26-1.08c-0.27-0.3-0.73-0.61-1.14-0.61C159.66,66.7,159.39,67.92,159.39,68.15z"
   id="path303"
   style="fill:#ffffff" />
		
		<path
   class="st20"
   d="M82.67,71.83l0.63-1.31c0.05-0.11,0.11-0.15,0.16-0.15c0.09,0,0.45,0.21,1.07,0.64    c0.63,0.43,0.95,0.68,0.95,0.76c0,0.28-0.28,0.87-0.83,1.77c-0.07,0.11-0.14,0.14-0.21,0.09c-0.54-0.4-1.17-0.83-1.85-1.28    c-0.23,0.53-0.46,0.97-0.68,1.33c-0.06,0.11-0.13,0.14-0.21,0.09c-0.62-0.47-1.26-0.92-1.92-1.33c-0.04-0.03-0.04-0.07,0-0.15    l0.79-1.62c0.05-0.11,0.11-0.15,0.17-0.15c0.07,0,0.38,0.18,0.9,0.53C82.15,71.4,82.5,71.67,82.67,71.83z"
   id="path307"
   style="fill:#ffffff" />
		<path
   class="st20"
   d="M57.23,71.85l0.63-1.31c0.05-0.11,0.11-0.15,0.16-0.15c0.09,0,0.45,0.21,1.07,0.64    c0.63,0.43,0.95,0.68,0.95,0.76c0,0.28-0.28,0.87-0.83,1.77c-0.07,0.11-0.14,0.14-0.21,0.09c-0.54-0.4-1.17-0.83-1.85-1.28    c-0.23,0.53-0.46,0.97-0.68,1.33c-0.06,0.11-0.13,0.14-0.21,0.09c-0.62-0.47-1.26-0.92-1.92-1.33c-0.04-0.03-0.04-0.07,0-0.15    l0.79-1.62c0.05-0.11,0.11-0.15,0.17-0.15c0.07,0,0.38,0.18,0.9,0.53C56.71,71.42,57.06,71.69,57.23,71.85z"
   id="path309"
   style="fill:#ffffff" />
		<path
   class="st21"
   d="M184.49,69.58c0.25-0.13,0.78,0.05,0.67,0.4c-0.07,0.22-0.11,0.5-0.32,0.64c-0.28-0.36-0.92-0.25-0.94,0.24    c0.49,0.14,0.99,0.33,1.51,0.3c0.39-0.01,0.61-0.4,0.97-0.47c-0.04,0.38-0.2,0.79-0.54,0.99c-0.53,0.36-1.09,0.74-1.37,1.33    c-0.08,0.28,0.27,0.44,0.5,0.43c0.99,0,1.96-0.3,2.83-0.76c0.24-0.12,0.5-0.21,0.76-0.28c-0.01,0.06,0.01,0.14-0.04,0.19    c-0.29,0.37-0.71,0.59-1.07,0.87c-0.8,0.58-1.78,0.82-2.75,0.88c-0.37,0.03-0.85-0.3-0.69-0.71c0.25-0.52,0.35-1.1,0.67-1.59    c-0.41-0.16-0.9-0.14-1.27-0.42C183.61,70.88,183.75,69.97,184.49,69.58"
   id="path311"
   style="fill:#ffffff" />
		<path
   class="st21"
   d="M50.9,46.78c0.29,0.05,0.58,0.17,0.88,0.12c-0.19-0.32-0.45-0.6-0.72-0.86C51,46.28,50.94,46.53,50.9,46.78     M49.54,46.35c0.28,0.28,0.72,0.3,1.09,0.35c-0.02-0.33-0.06-0.74-0.41-0.9C49.88,45.6,49.64,46.08,49.54,46.35 M49.17,45.65    c-0.01-0.5,0.27-1.07,0.78-1.23c0.25-0.08,0.46,0.11,0.65,0.25c0.43,0.29,0.76,0.68,1.07,1.09c0.45,0.53,0.56,1.37,0.18,1.97    c-0.39,0.23-0.84-0.1-1.24-0.02c-0.41,1.12-1.36,1.91-2.18,2.72c-0.52,0.42-1.04,0.82-1.54,1.26c-0.44,0.27-0.71,0.75-1.21,0.92    c0.01-0.13-0.02-0.28,0.09-0.38c0.8-0.71,1.54-1.47,2.33-2.19c0.76-0.78,1.62-1.49,2.17-2.44c-0.35-0.13-0.88-0.15-0.98-0.59    c-0.05-0.43,0.05-0.88,0.24-1.27C49.4,45.8,49.17,45.87,49.17,45.65"
   id="path313"
   style="fill:#ffffff" />
		<path
   class="st21"
   d="M211.5,68.53c0.13-0.24,0.34-0.59,0.66-0.47c0.24,0.13,0.48,0.3,0.65,0.52c0.04,0.32-0.09,0.64-0.2,0.93    c-0.22-0.24-0.45-0.55-0.78-0.6c-0.38,0.12-0.4,0.61-0.39,0.94c-0.07,0.75-0.01,1.52-0.18,2.26c-0.05,0.23-0.06,0.51-0.27,0.67    c-0.26-0.16-0.27-0.52-0.37-0.78c-0.22-0.6-0.42-1.25-0.88-1.72c-0.06,0.06-0.13,0.11-0.2,0.16c-0.33-0.19-0.68-0.35-0.99-0.57    c-0.04-0.32,0.09-0.63,0.19-0.93c0.34-0.07,0.69-0.01,0.96,0.21c0.82,0.57,1.03,1.61,1.38,2.49    C211.09,70.6,211.1,69.51,211.5,68.53"
   id="path315"
   style="fill:#ffffff" />
		<path
   class="st21"
   d="M153.32,69.49c0.03-0.12,0.14-0.2,0.24-0.27c0,0.87-0.25,1.72-0.27,2.59c0,0.39,0.11,0.81,0.44,1.04    c0.14,0.11,0.38,0.22,0.53,0.06c0.1-0.22,0.13-0.46,0.21-0.69c0.22,0.05,0.26,0.34,0.3,0.53c0.02,0.45-0.1,0.93-0.37,1.3    c-0.59,0.3-1.24-0.22-1.42-0.78c-0.16-0.57-0.15-1.18-0.06-1.77C152.97,70.82,153.08,70.13,153.32,69.49"
   id="path317"
   style="fill:#ffffff" />
		<path
   class="st21"
   d="M121.34,71.17c0.03-0.1,0.11-0.16,0.19-0.22c0,0.7-0.2,1.38-0.21,2.08c0,0.31,0.09,0.65,0.36,0.84    c0.11,0.08,0.31,0.18,0.42,0.05c0.08-0.18,0.1-0.37,0.17-0.55c0.18,0.04,0.21,0.27,0.24,0.42c0.01,0.36-0.08,0.75-0.3,1.04    c-0.48,0.24-0.99-0.18-1.14-0.63c-0.13-0.46-0.12-0.95-0.05-1.42C121.06,72.23,121.15,71.68,121.34,71.17"
   id="path319"
   style="fill:#ffffff" />
		<path
   class="st21"
   d="M180.77,53.34c0.42,0.92,1.13,1.94,0.61,2.98c-0.31,0.62-1.05,0.12-1.41-0.18c-0.12,0.51-0.62,1-1.17,0.74    c-0.63-0.46-0.33-1.33-0.48-1.99c-0.12-0.42-0.02-0.84,0.16-1.22c0.4,0.64,0.02,1.44,0.31,2.1c0.19,0.48,1.15,0.26,0.99-0.29    c-0.07-0.63-0.42-1.46,0-1.97c0.32,0.32,0.24,1,0.39,1.45c0.07,0.51,0.61,0.7,1.05,0.76C180.81,54.99,180.41,54.18,180.77,53.34"
   id="path321"
   style="fill:#ffffff" />
		<path
   class="st21"
   d="M101.37,54.91c0.42,0.92,1.13,1.94,0.61,2.98c-0.31,0.62-1.05,0.12-1.41-0.18c-0.12,0.51-0.62,1-1.17,0.74    c-0.63-0.46-0.33-1.33-0.48-1.99c-0.12-0.42-0.02-0.84,0.16-1.22c0.4,0.64,0.02,1.44,0.31,2.1c0.19,0.48,1.15,0.26,0.99-0.29    c-0.07-0.63-0.42-1.46,0-1.97c0.32,0.32,0.24,1,0.39,1.45c0.07,0.51,0.61,0.7,1.05,0.76C101.41,56.56,101.01,55.75,101.37,54.91"
   id="path323"
   style="fill:#ffffff" />
		<path
   class="st21"
   d="M80.7,38.02c0.28-0.1,0.33-0.17,0.22,0.11c-0.22,0.57-0.57,1.09-0.89,1.62    c-7.01,2.91-19.04,7.72-25.56,10.56c-0.83,0.34-1.29,0.87-1.56,1.2c-0.38,0.48-0.43,0.38-0.33-0.13c0.23-1.06,0.65-2.25,1.72-2.68    C57.78,47.02,73.56,40.6,80.7,38.02"
   id="path325"
   style="fill:#ffffff" />
		<path
   class="st21"
   d="M84.34,41.76c0.2-0.07,0.23-0.12,0.16,0.08c-0.16,0.41-0.41,0.78-0.63,1.15    c-4.97,2.06-15.16,6.07-19.78,8.08c-0.59,0.24-0.91,0.62-1.1,0.85c-0.27,0.34-0.31,0.27-0.23-0.09c0.16-0.75,0.46-1.59,1.22-1.9    C66.43,48.74,79.27,43.59,84.34,41.76"
   id="path327"
   style="fill:#ffffff" />
		<path
   class="st21"
   d="M56.5,39.78c1.49,1.05,2.69,3.51,2.38,5.75c-0.12,0.84-0.38,1.06-0.34,0.01c0.07-1.94-0.98-4.06-2.28-4.78    c-0.17-0.1-0.19-0.07-0.2-0.32c0-0.15,0.02-0.35,0.04-0.51C56.14,39.6,56.15,39.53,56.5,39.78"
   id="path329"
   style="fill:#ffffff" />
		<path
   class="st21"
   d="M71.12,52.41c0.03-0.1,0.11-0.16,0.19-0.22c0,0.7-0.2,1.38-0.21,2.08c0,0.31,0.09,0.65,0.36,0.84    c0.11,0.08,0.31,0.18,0.42,0.05c0.08-0.18,0.1-0.37,0.17-0.55c0.18,0.04,0.21,0.27,0.24,0.42c0.01,0.36-0.08,0.75-0.3,1.04    c-0.48,0.24-0.99-0.18-1.14-0.63c-0.13-0.46-0.12-0.95-0.05-1.42C70.84,53.47,70.93,52.92,71.12,52.41"
   id="path331"
   style="fill:#ffffff" />
		<path
   class="st21"
   d="M84.71,50.34c0.13-0.24,0.34-0.59,0.66-0.47c0.24,0.13,0.48,0.3,0.65,0.52c0.04,0.32-0.09,0.64-0.2,0.93    c-0.22-0.24-0.45-0.55-0.78-0.6c-0.38,0.12-0.4,0.61-0.39,0.94c-0.07,0.75-0.01,1.52-0.18,2.26c-0.05,0.23-0.06,0.51-0.27,0.67    c-0.26-0.16-0.27-0.52-0.37-0.78c-0.22-0.6-0.42-1.25-0.88-1.72c-0.06,0.06-0.13,0.11-0.2,0.16c-0.33-0.19-0.68-0.35-0.99-0.57    c-0.04-0.32,0.09-0.63,0.19-0.93c0.34-0.07,0.69-0.01,0.96,0.21c0.82,0.57,1.03,1.61,1.38,2.49    C84.31,52.41,84.31,51.32,84.71,50.34"
   id="path333"
   style="fill:#ffffff" />
		<path
   class="st21"
   d="M65.02,54.18c0.42,0.92,1.13,1.94,0.61,2.98c-0.31,0.62-1.05,0.12-1.41-0.18c-0.12,0.51-0.62,1-1.17,0.74    c-0.63-0.46-0.33-1.33-0.48-1.99c-0.12-0.42-0.02-0.84,0.16-1.22c0.4,0.64,0.02,1.44,0.31,2.1c0.19,0.48,1.15,0.26,0.99-0.29    c-0.07-0.63-0.42-1.46,0-1.97c0.32,0.32,0.24,1,0.39,1.45c0.07,0.51,0.61,0.7,1.05,0.76C65.06,55.83,64.66,55.02,65.02,54.18"
   id="path335"
   style="fill:#ffffff" />
		<path
   class="st21"
   d="M58.54,51.65c0.03-0.1,0.11-0.16,0.19-0.22c0,0.7-0.2,1.38-0.21,2.08c0,0.31,0.09,0.65,0.36,0.84    c0.11,0.08,0.31,0.18,0.42,0.05c0.08-0.18,0.1-0.37,0.17-0.55c0.18,0.04,0.21,0.27,0.24,0.42c0.01,0.36-0.08,0.75-0.3,1.04    c-0.48,0.24-0.99-0.18-1.14-0.63c-0.13-0.46-0.12-0.95-0.05-1.42C58.26,52.71,58.35,52.16,58.54,51.65"
   id="path337"
   style="fill:#ffffff" />
		<path
   class="st21"
   d="M98.01,46.19c0.35-1.53,0.59-3.13,1.4-4.5c0.2,1.38-0.6,2.6-0.72,3.94c-0.23,0.81-0.05,1.76,0.59,2.34    c0.42,0.35,1.01,0.26,1.48,0.07c0.12-0.53,0.24-1.09,0.62-1.5c-0.11,1.24-0.24,2.78-1.42,3.5c-0.45,0.35-1.03,0.01-1.39-0.31    C97.77,48.71,97.87,47.39,98.01,46.19"
   id="path339"
   style="fill:#ffffff" />
		<path
   class="st21"
   d="M107.44,42.25c0.14-0.27,0.38-0.66,0.74-0.52c0.27,0.15,0.54,0.33,0.73,0.58c0.05,0.36-0.1,0.71-0.22,1.04    c-0.25-0.26-0.5-0.61-0.87-0.67c-0.43,0.13-0.44,0.68-0.44,1.05c-0.07,0.84-0.01,1.7-0.2,2.53c-0.03,0.14-0.05,0.29-0.09,0.42    c0,0,0.01,0,0.01,0c0.45,0,0.98,0.34,1.27,0.69c0.54,0.62,0.42,0.31,0.29,1.21c-0.05,0.34-0.01,0.46-0.39,0.51    c-0.57,0.08-1.7,0.22-2.05,0.73c1.36,2.03,1.65,4.64,1.52,6.86c-0.07,1.07-0.15,0.86-0.21,0.03c-0.14-2.62-0.62-4.37-1.66-6.38    c-0.15-0.3-0.11-0.5-0.05-0.83c0.06-0.32,0.17-0.58,0.37-0.79c0.24-0.24,0.84-0.52,1.23-0.61c-0.04-0.13-0.37-0.27-0.54-0.27    c-0.39,0-0.45,0.53-0.53,0.62c-0.16,0.2-0.2-0.01-0.2-0.14c0-0.2,0.18-1.06,0.56-1.44c-0.15-0.2-0.17-0.5-0.27-0.72    c-0.24-0.68-0.47-1.4-0.98-1.93c-0.07,0.06-0.14,0.13-0.22,0.18c-0.37-0.21-0.76-0.39-1.11-0.64c-0.05-0.36,0.1-0.71,0.21-1.04    c0.38-0.08,0.78-0.01,1.08,0.23c0.92,0.64,1.16,1.8,1.54,2.78C106.99,44.56,107,43.35,107.44,42.25"
   id="path341"
   style="fill:#ffffff" />
		<path
   class="st21"
   d="M143,61.35c-0.04,0.18-0.07,0.3-0.1,0.44c-0.06,0.28-0.14,0.33-0.43,0.44c-2.93,1.06-5.82,2.21-8.33,3.6    c-0.24,0.13-0.24,0.15-0.17-0.11c0.06-0.21,0.12-0.49,0.21-0.77c0.05-0.17,0.15-0.22,0.29-0.31c2.37-1.43,5.41-2.44,8.22-3.51    C143.14,60.97,143.09,60.92,143,61.35"
   id="path343"
   style="fill:#ffffff" />
		<path
   class="st21"
   d="M132.96,70.54c-0.03,0.14-0.06,0.23-0.08,0.33c-0.05,0.21-0.1,0.25-0.32,0.33c-2.21,0.8-4.39,1.67-6.29,2.71    c-0.18,0.1-0.18,0.12-0.13-0.08c0.05-0.16,0.09-0.37,0.16-0.58c0.04-0.13,0.11-0.17,0.22-0.23c1.78-1.08,4.08-1.84,6.21-2.65    C133.06,70.25,133.03,70.21,132.96,70.54"
   id="path345"
   style="fill:#ffffff" />
		<path
   class="st21"
   d="M116.96,55.65c0.03-0.1,0.11-0.16,0.19-0.22c0,0.7-0.2,1.38-0.21,2.08c0,0.31,0.09,0.65,0.36,0.84    c0.11,0.08,0.31,0.18,0.42,0.05c0.08-0.18,0.1-0.37,0.17-0.55c0.18,0.04,0.21,0.27,0.24,0.42c0.01,0.36-0.08,0.75-0.3,1.04    c-0.48,0.24-0.99-0.18-1.14-0.63c-0.13-0.46-0.12-0.95-0.05-1.42C116.68,56.72,116.77,56.17,116.96,55.65"
   id="path347"
   style="fill:#ffffff" />
		<path
   class="st21"
   d="M90.22,41.85c1.49,1.05,2.69,3.51,2.38,5.75c-0.12,0.84-0.38,1.06-0.34,0.01c0.07-1.94-0.98-4.06-2.28-4.78    c-0.17-0.1-0.19-0.07-0.2-0.32c0-0.15,0.02-0.35,0.04-0.51C89.86,41.66,89.87,41.6,90.22,41.85"
   id="path349"
   style="fill:#ffffff" />
		<path
   class="st21"
   d="M91.3,52.04c0.03-0.1,0.11-0.16,0.19-0.22c0,0.7-0.2,1.38-0.21,2.08c0,0.31,0.09,0.65,0.36,0.84    c0.11,0.08,0.31,0.18,0.42,0.05c0.08-0.18,0.1-0.37,0.17-0.55c0.18,0.04,0.21,0.27,0.24,0.42c0.01,0.36-0.08,0.75-0.3,1.04    c-0.48,0.24-0.99-0.18-1.14-0.63c-0.13-0.46-0.12-0.95-0.05-1.42C91.02,53.1,91.1,52.55,91.3,52.04"
   id="path351"
   style="fill:#ffffff" />
		<path
   class="st21"
   d="M115.11,42.04c1.49,1.05,2.69,3.51,2.38,5.75c-0.12,0.84-0.38,1.06-0.34,0.01c0.07-1.94-0.98-4.06-2.28-4.78    c-0.17-0.1-0.19-0.07-0.2-0.32c0-0.15,0.02-0.35,0.04-0.51C114.75,41.86,114.76,41.8,115.11,42.04"
   id="path353"
   style="fill:#ffffff" />
		<path
   class="st21"
   d="M204.93,38.42c0.28-0.1,0.33-0.17,0.22,0.11c-0.22,0.57-0.57,1.09-0.89,1.62    c-7.01,2.91-19.05,7.72-25.56,10.56c-0.83,0.34-1.29,0.87-1.56,1.2c-0.38,0.48-0.43,0.38-0.33-0.13c0.23-1.06,0.65-2.25,1.72-2.68    C182.01,47.42,197.79,41.01,204.93,38.42"
   id="path355"
   style="fill:#ffffff" />
		<path
   class="st21"
   d="M211.39,41.84c0.2-0.07,0.23-0.12,0.16,0.08c-0.16,0.41-0.41,0.78-0.63,1.15    c-4.97,2.06-15.16,6.07-19.78,8.08c-0.59,0.24-0.91,0.62-1.1,0.85c-0.27,0.34-0.31,0.27-0.23-0.09c0.16-0.75,0.46-1.59,1.22-1.9    C193.49,48.82,206.33,43.67,211.39,41.84"
   id="path357"
   style="fill:#ffffff" />
		<path
   class="st21"
   d="M167.03,37.38c0.2-0.07,0.23-0.12,0.16,0.08c-0.16,0.41-0.41,0.78-0.63,1.15    c-4.97,2.06-15.16,6.07-19.78,8.08c-0.59,0.24-0.91,0.62-1.1,0.85c-0.27,0.34-0.31,0.27-0.23-0.09c0.16-0.75,0.46-1.59,1.22-1.9    C149.12,44.36,161.97,39.21,167.03,37.38"
   id="path359"
   style="fill:#ffffff" />
		<path
   class="st21"
   d="M168.18,41.97c0.14-0.05,0.16-0.08,0.11,0.06c-0.11,0.29-0.29,0.55-0.45,0.81c-3.52,1.46-10.73,4.3-14,5.72    c-0.42,0.17-0.65,0.44-0.78,0.6c-0.19,0.24-0.22,0.19-0.16-0.07c0.11-0.53,0.33-1.13,0.87-1.34    C155.51,46.91,164.6,43.26,168.18,41.97"
   id="path361"
   style="fill:#ffffff" />
		<path
   class="st21"
   d="M123.67,45.57c0.35-1.53,0.59-3.13,1.4-4.5c0.2,1.38-0.6,2.6-0.72,3.94c-0.23,0.81-0.05,1.76,0.59,2.34    c0.42,0.35,1.01,0.26,1.48,0.07c0.12-0.53,0.24-1.09,0.62-1.5c-0.11,1.24-0.24,2.78-1.42,3.5c-0.45,0.35-1.03,0.01-1.39-0.31    C123.44,48.09,123.54,46.77,123.67,45.57"
   id="path363"
   style="fill:#ffffff" />
		<path
   class="st21"
   d="M53.11,71.73c-0.03,0.14-0.06,0.23-0.08,0.33c-0.04,0.21-0.1,0.25-0.32,0.33c-2.21,0.8-4.39,1.67-6.29,2.71    c-0.18,0.1-0.18,0.12-0.13-0.08c0.05-0.16,0.09-0.37,0.16-0.58c0.04-0.13,0.11-0.17,0.22-0.23c1.78-1.08,4.08-1.84,6.21-2.65    C53.22,71.44,53.18,71.4,53.11,71.73"
   id="path365"
   style="fill:#ffffff" />
		<path
   class="st21"
   d="M77.02,70.75c-0.03,0.14-0.06,0.23-0.08,0.33c-0.04,0.21-0.1,0.25-0.32,0.33c-2.21,0.8-4.39,1.67-6.29,2.71    c-0.18,0.1-0.18,0.12-0.13-0.08c0.05-0.16,0.09-0.37,0.16-0.58c0.04-0.13,0.11-0.17,0.22-0.23c1.78-1.08,4.08-1.84,6.21-2.65    C77.12,70.46,77.09,70.42,77.02,70.75"
   id="path367"
   style="fill:#ffffff" />
		<path
   class="st21"
   d="M102.42,71.24c-0.03,0.14-0.06,0.23-0.08,0.33c-0.05,0.21-0.1,0.25-0.32,0.33c-2.21,0.8-4.39,1.67-6.29,2.71    c-0.18,0.1-0.18,0.12-0.13-0.08c0.05-0.16,0.09-0.37,0.16-0.58c0.04-0.13,0.11-0.17,0.22-0.23c1.78-1.08,4.08-1.84,6.21-2.65    C102.52,70.96,102.49,70.92,102.42,71.24"
   id="path369"
   style="fill:#ffffff" />
		<path
   class="st21"
   d="M196.62,71.19c-0.03,0.14-0.06,0.23-0.08,0.33c-0.04,0.21-0.1,0.25-0.32,0.34c-2.21,0.8-4.39,1.67-6.29,2.71    c-0.18,0.1-0.18,0.12-0.13-0.08c0.05-0.16,0.09-0.37,0.16-0.58c0.04-0.13,0.11-0.17,0.22-0.23c1.78-1.08,4.08-1.84,6.21-2.65    C196.72,70.9,196.69,70.86,196.62,71.19"
   id="path371"
   style="fill:#ffffff" />
		<path
   class="st21"
   d="M115.16,70.63c-0.03,0.14-0.06,0.23-0.08,0.33c-0.04,0.21-0.1,0.25-0.32,0.33c-2.21,0.8-4.39,1.67-6.29,2.71    c-0.18,0.1-0.18,0.12-0.13-0.08c0.05-0.16,0.09-0.37,0.16-0.58c0.04-0.13,0.11-0.17,0.22-0.23c1.78-1.08,4.08-1.84,6.21-2.65    C115.27,70.34,115.23,70.3,115.16,70.63"
   id="path373"
   style="fill:#ffffff" />
		<path
   class="st21"
   d="M147.11,70.14c0.13-0.24,0.34-0.59,0.66-0.47c0.24,0.13,0.48,0.3,0.65,0.52c0.04,0.32-0.09,0.64-0.2,0.93    c-0.22-0.24-0.45-0.55-0.78-0.6c-0.38,0.12-0.4,0.61-0.39,0.94c-0.07,0.75-0.01,1.52-0.18,2.26c-0.05,0.23-0.06,0.51-0.27,0.67    c-0.26-0.16-0.27-0.52-0.37-0.78c-0.22-0.6-0.42-1.25-0.88-1.72c-0.06,0.06-0.13,0.11-0.2,0.16c-0.33-0.19-0.68-0.35-0.99-0.57    c-0.04-0.32,0.09-0.63,0.19-0.93c0.34-0.07,0.69-0.01,0.96,0.21c0.82,0.57,1.03,1.61,1.38,2.49    C146.71,72.21,146.72,71.13,147.11,70.14"
   id="path375"
   style="fill:#ffffff" />
		<path
   class="st21"
   d="M181.23,38.62c1.49,1.05,2.69,3.51,2.38,5.75c-0.12,0.84-0.38,1.06-0.34,0.01c0.07-1.94-0.98-4.06-2.28-4.78    c-0.17-0.1-0.19-0.07-0.2-0.32c0-0.15,0.02-0.35,0.04-0.51C180.87,38.44,180.88,38.38,181.23,38.62"
   id="path377"
   style="fill:#ffffff" />
		<path
   class="st21"
   d="M186.68,39.06c0.03-0.1,0.11-0.16,0.19-0.22c0,0.7-0.2,1.38-0.21,2.08c0,0.31,0.09,0.65,0.36,0.84    c0.11,0.08,0.31,0.18,0.42,0.05c0.08-0.18,0.1-0.37,0.17-0.55c0.18,0.04,0.21,0.27,0.24,0.42c0.01,0.36-0.08,0.75-0.3,1.04    c-0.48,0.24-0.99-0.18-1.14-0.63c-0.13-0.46-0.12-0.95-0.05-1.42C186.4,40.13,186.49,39.58,186.68,39.06"
   id="path379"
   style="fill:#ffffff" />
		<path
   class="st21"
   d="M64.65,39.06c0.03-0.1,0.11-0.16,0.19-0.22c0,0.7-0.2,1.38-0.21,2.08c0,0.31,0.09,0.65,0.36,0.84    c0.11,0.08,0.31,0.18,0.42,0.05c0.08-0.18,0.1-0.37,0.17-0.55c0.18,0.04,0.21,0.27,0.24,0.42c0.01,0.36-0.08,0.75-0.3,1.04    c-0.48,0.24-0.99-0.18-1.14-0.63c-0.13-0.46-0.12-0.95-0.05-1.42C64.37,40.13,64.45,39.58,64.65,39.06"
   id="path381"
   style="fill:#ffffff" />
		<path
   class="st21"
   d="M148.77,39.06c0.03-0.1,0.11-0.16,0.19-0.22c0,0.7-0.2,1.38-0.21,2.08c0,0.31,0.09,0.65,0.36,0.84    c0.11,0.08,0.31,0.18,0.42,0.05c0.08-0.18,0.1-0.37,0.17-0.55c0.18,0.04,0.21,0.27,0.24,0.42c0.01,0.36-0.08,0.75-0.3,1.04    c-0.48,0.24-0.99-0.18-1.14-0.63c-0.13-0.46-0.12-0.95-0.05-1.42C148.49,40.13,148.58,39.58,148.77,39.06"
   id="path383"
   style="fill:#ffffff" />
		<path
   class="st21"
   d="M146.11,49.46c1.49,1.05,2.69,3.51,2.38,5.75c-0.12,0.84-0.38,1.06-0.34,0.01c0.07-1.94-0.98-4.06-2.28-4.78    c-0.17-0.1-0.19-0.07-0.2-0.32c0-0.15,0.02-0.35,0.04-0.51C145.74,49.28,145.75,49.22,146.11,49.46"
   id="path385"
   style="fill:#ffffff" />
		<path
   class="st21"
   d="M157.87,50.52c0.13-0.24,0.34-0.59,0.66-0.47c0.24,0.13,0.48,0.3,0.65,0.52c0.04,0.32-0.09,0.64-0.2,0.93    c-0.22-0.24-0.45-0.55-0.78-0.6c-0.38,0.12-0.4,0.61-0.39,0.94c-0.07,0.75-0.01,1.52-0.18,2.26c-0.05,0.23-0.06,0.51-0.27,0.67    c-0.26-0.16-0.27-0.52-0.37-0.78c-0.22-0.6-0.42-1.25-0.88-1.72c-0.06,0.06-0.13,0.11-0.2,0.16c-0.33-0.19-0.68-0.35-0.99-0.57    c-0.04-0.32,0.09-0.63,0.19-0.93c0.34-0.07,0.69-0.01,0.96,0.21c0.82,0.57,1.03,1.61,1.38,2.49    C157.46,52.59,157.47,51.51,157.87,50.52"
   id="path387"
   style="fill:#ffffff" />
		<path
   class="st21"
   d="M129.35,41.08c0.3-0.18,0.69-0.08,1.03-0.11c0.8,0.04,1.65-0.1,2.4,0.24c0.25,0.11,0.16,0.43,0.07,0.62    c-0.4,0.73-0.64,1.66-1.47,2.03c-0.79,0.29-1.58,0.6-2.4,0.78c0.08-0.16,0.19-0.31,0.36-0.4c0.73-0.44,1.46-0.9,2.1-1.47    c-0.96-0.1-1.93-0.05-2.9,0.01C128.76,42.19,128.97,41.57,129.35,41.08"
   id="path389"
   style="fill:#ffffff" />
		<path
   class="st21"
   d="M171.7,40.54c0.41,0.47,0.89,0.88,1.42,1.21c0.01-0.51,0.08-1.24-0.42-1.51    C172.37,40.07,171.97,40.32,171.7,40.54 M173.55,43.43c-0.15-0.1-0.29-0.2-0.44-0.3c-1.35,1.81-2.21,2.54-3.96,4    c-0.13,0.12-6.09,4.91-3.69,2.4c2.34-2,4.61-4.09,6.82-6.22c0.14-0.16,0.32-0.32,0.37-0.53c-0.45-0.38-0.96-0.71-1.34-1.17    c-0.37-0.54-0.16-1.21,0.13-1.72c0.32-0.57,1.62-1.37,2.02-0.36c0.32,0.79,0.27,1.67,0.04,2.47c0.17,0.23,0.4,0.41,0.58,0.63    c0.17,0.22-0.7,2.25-0.72,3.34c-0.02,1.01,0.58,1.76,1.63,1.34c0.04-0.23,0.08-0.47,0.14-0.67c0.07-0.22,0.18-0.35,0.33-0.46    c-0.08,0.93-0.2,2.07-1.07,2.64c-0.36,0.24-0.81,0.04-1.05-0.23C172.3,47.41,173.15,44.81,173.55,43.43z"
   id="path391"
   style="fill:#ffffff" />
		<path
   class="st21"
   d="M196.98,53.38c-0.08,0.22-0.07,0.5,0.11,0.68c0.32,0.15,0.7,0.09,1.01-0.08    C197.8,53.66,197.37,53.53,196.98,53.38 M197.03,52.18c0.15-0.35,0.22-0.74,0.45-1.04c0.13,0.44-0.09,0.88-0.24,1.28    c0.36,0.17,0.78,0.27,1.05,0.57c0.39,0.36,0.33,0.97,0.15,1.43c-0.33,0.51-1.05,0.77-1.61,0.51c-0.22-0.21-0.34-0.54-0.3-0.85    C196.64,53.44,196.78,52.79,197.03,52.18"
   id="path393"
   style="fill:#ffffff" />
		<path
   class="st21"
   d="M185.6,52.32c0.03-0.1,0.11-0.16,0.19-0.22c0,0.7-0.2,1.38-0.21,2.08c0,0.31,0.09,0.65,0.36,0.84    c0.11,0.08,0.31,0.18,0.42,0.05c0.08-0.18,0.1-0.37,0.17-0.55c0.18,0.04,0.21,0.27,0.24,0.42c0.01,0.36-0.08,0.75-0.3,1.04    c-0.48,0.24-0.99-0.18-1.14-0.63c-0.13-0.46-0.12-0.95-0.05-1.42C185.31,53.39,185.4,52.84,185.6,52.32"
   id="path395"
   style="fill:#ffffff" />
		<path
   class="st21"
   d="M217.35,68.26c0.03-0.1,0.11-0.16,0.19-0.22c0,0.7-0.2,1.38-0.21,2.08c0,0.31,0.09,0.65,0.36,0.84    c0.11,0.08,0.31,0.18,0.42,0.05c0.08-0.18,0.1-0.37,0.17-0.55c0.18,0.04,0.21,0.27,0.24,0.42c0.01,0.36-0.08,0.75-0.3,1.04    c-0.48,0.24-0.99-0.18-1.14-0.63c-0.13-0.46-0.12-0.95-0.05-1.42C217.07,69.33,217.16,68.78,217.35,68.26"
   id="path397"
   style="fill:#ffffff" />
	</g>
</g>
</svg>